<svg width="82" height="82" viewBox="0 0 82 82" fill="none" xmlns="http://www.w3.org/2000/svg">
<path d="M47.6009 41.995C47.5761 43.2938 47.1663 44.556 46.4233 45.6217C45.6804 46.6873 44.6378 47.5083 43.4277 47.9808C42.2176 48.4532 40.8945 48.5557 39.6261 48.2753C38.3577 47.9949 37.2011 47.3442 36.3029 46.4057C35.4047 45.4672 34.8054 44.2832 34.5809 43.0037C34.3564 41.7242 34.5168 40.4068 35.0419 39.2186C35.5669 38.0304 36.4329 37.0248 37.5301 36.3294C38.6273 35.6339 39.9063 35.2798 41.2049 35.3121C42.9306 35.376 44.5635 36.1095 45.7575 37.3571C46.9515 38.6046 47.6127 40.2682 47.6009 41.995Z" fill="white"/>
<path d="M52.3282 21.4546H30.0859C27.8851 21.4546 25.7744 22.3289 24.2181 23.8851C22.6619 25.4413 21.7876 27.5521 21.7876 29.7529V52.4954C21.7876 53.5851 22.0022 54.6642 22.4193 55.671C22.8363 56.6778 23.4475 57.5926 24.2181 58.3632C24.9887 59.1337 25.9035 59.745 26.9103 60.162C27.9171 60.579 28.9962 60.7937 30.0859 60.7937H52.3282C53.4179 60.7937 54.497 60.579 55.5038 60.162C56.5106 59.745 57.4254 59.1337 58.196 58.3632C58.9665 57.5926 59.5778 56.6778 59.9948 55.671C60.4118 54.6642 60.6265 53.5851 60.6265 52.4954V29.7939C60.6308 28.701 60.4194 27.618 60.0044 26.607C59.5894 25.5959 58.979 24.6767 58.2081 23.902C57.4372 23.1273 56.521 22.5123 55.512 22.0924C54.503 21.6724 53.4211 21.4557 52.3282 21.4546ZM41.205 53.1186C39.0032 53.1683 36.8365 52.5608 34.9814 51.3737C33.1264 50.1866 31.6671 48.4736 30.7898 46.4535C29.9126 44.4334 29.6571 42.1977 30.056 40.0317C30.455 37.8658 31.4902 35.8678 33.0297 34.2928C34.5691 32.7179 36.543 31.6373 38.6992 31.189C40.8555 30.7407 43.0964 30.9451 45.1361 31.776C47.1757 32.607 48.9215 34.0268 50.1506 35.8542C51.3798 37.6817 52.0365 39.834 52.0371 42.0364C52.0539 43.4754 51.787 44.9036 51.2516 46.2394C50.7163 47.5753 49.923 48.7925 48.9171 49.8217C47.9111 50.8508 46.7123 51.6717 45.389 52.2374C44.0658 52.8031 42.644 53.1025 41.205 53.1186ZM53.2425 30.9583C52.9719 30.9583 52.7041 30.9044 52.4547 30.7997C52.2052 30.6949 51.9792 30.5414 51.7898 30.3482C51.6004 30.155 51.4515 29.926 51.3518 29.6745C51.252 29.423 51.2034 29.1542 51.2089 28.8837C51.2089 28.3335 51.4275 27.8058 51.8165 27.4168C52.2056 27.0277 52.7333 26.8091 53.2835 26.8091C53.8337 26.8091 54.3614 27.0277 54.7504 27.4168C55.1395 27.8058 55.358 28.3335 55.358 28.8837C55.3662 29.1766 55.3109 29.4678 55.1961 29.7373C55.0813 30.0069 54.9095 30.2484 54.6926 30.4455C54.4758 30.6425 54.2189 30.7903 53.9396 30.8788C53.6603 30.9673 53.3651 30.9944 53.0744 30.9583H53.2425Z" fill="white"/>
<path d="M41.2051 0.000513208C30.3313 -0.0538556 19.8813 4.21359 12.154 11.8641C4.42661 19.5145 0.054882 29.9213 0.000513208 40.7951C-0.0538556 51.6688 4.21359 62.1189 11.8641 69.8462C19.5145 77.5736 29.9213 81.9453 40.7951 81.9997C46.1792 82.0266 51.5159 80.9927 56.5005 78.9572C61.4851 76.9216 66.02 73.9242 69.8462 70.1361C73.6724 66.348 76.715 61.8433 78.8003 56.8793C80.8856 51.9153 81.9727 46.5892 81.9997 41.2051C82.0266 35.8209 80.9927 30.4842 78.9572 25.4996C76.9216 20.515 73.9242 15.9802 70.1361 12.154C66.348 8.32777 61.8433 5.28516 56.8793 3.19987C51.9153 1.11458 46.5892 0.0274339 41.2051 0.000513208ZM66.1041 52.0782C66.1155 53.9175 65.7617 55.7409 65.0632 57.4425C64.3647 59.1441 63.3354 60.6902 62.0349 61.991C60.7345 63.2919 59.1887 64.3217 57.4873 65.0207C55.7859 65.7197 53.9626 66.074 52.1233 66.0631H30.2951C28.456 66.0735 26.6332 65.7189 24.932 65.02C23.2309 64.3211 21.6853 63.2917 20.3847 61.9915C19.084 60.6912 18.0542 59.1459 17.3548 57.445C16.6554 55.7441 16.3004 53.9213 16.3101 52.0823V30.25C16.2987 28.4106 16.6525 26.5873 17.351 24.8856C18.0495 23.184 19.0788 21.638 20.3793 20.3371C21.6798 19.0363 23.2255 18.0065 24.927 17.3075C26.6284 16.6085 28.4516 16.2542 30.291 16.265H52.1233C53.9623 16.2542 55.7852 16.6084 57.4864 17.3071C59.1875 18.0059 60.7331 19.0353 62.0335 20.3357C63.3339 21.6361 64.3633 23.1817 65.0621 24.8828C65.7608 26.584 66.115 28.4069 66.1041 30.2459V52.0782Z" fill="white"/>
</svg>
